<?xml version="1.0"?>
<svg xmlns="http://www.w3.org/2000/svg" xmlns:xlink="http://www.w3.org/1999/xlink" version="1.1" id="Capa_1" x="0px" y="0px" viewBox="0 0 496 496" style="enable-background:new 0 0 496 496;" xml:space="preserve" width="512px" height="512px" class=""><g><circle style="fill:#FFE529" cx="248" cy="104" r="96" data-original="#FEA82F" class="" data-old_color="#FEA82F"/><path style="fill:#FFCE00" d="M248,176c-48.944,0-89.256-36.656-95.168-84c-0.496,3.936-0.832,7.928-0.832,12  c0,53.016,42.984,96,96,96s96-42.984,96-96c0-4.072-0.336-8.064-0.832-12C337.256,139.344,296.944,176,248,176z" data-original="#FF8031" class="" data-old_color="#FF8031"/><circle style="fill:#8A4FFF" cx="248" cy="392" r="96" data-original="#48C397" class="" data-old_color="#48C397"/><path style="fill:#5A27C0" d="M248,464c-48.944,0-89.256-36.656-95.168-84c-0.496,3.936-0.832,7.928-0.832,12  c0,53.016,42.984,96,96,96s96-42.984,96-96c0-4.072-0.336-8.064-0.832-12C337.256,427.344,296.944,464,248,464z" data-original="#0FA196" class="active-path" data-old_color="#0FA196"/><path d="M248,64c8.824,0,16,7.176,16,16h16c0-14.864-10.232-27.288-24-30.864V32h-16v17.136c-13.768,3.576-24,16-24,30.864  c0,17.648,14.352,32,32,32c8.824,0,16,7.176,16,16s-7.176,16-16,16s-16-7.176-16-16h-16c0,14.864,10.232,27.288,24,30.864V176h16  v-17.136c13.768-3.576,24-16,24-30.864c0-17.648-14.352-32-32-32c-8.824,0-16-7.176-16-16S239.176,64,248,64z" data-original="#000000" class=""/><path d="M256,352c8.824,0,16,7.176,16,16h16c0-17.648-14.352-32-32-32s-32,14.352-32,32h-16v16h16v16h-16v16h16  c0,17.648,14.352,32,32,32s32-14.352,32-32h-16c0,8.824-7.176,16-16,16s-16-7.176-16-16h16v-16h-16v-16h16v-16h-16  C240,359.176,247.176,352,256,352z" data-original="#000000" class=""/><path d="M416,96h-24.456l30.968-43.352l-13.016-9.296L366.168,104l43.32,60.648l13.016-9.296L391.544,112H416  c35.288,0,64,28.712,64,64s-28.712,64-64,64h-48v16h48c44.112,0,80-35.888,80-80S460.112,96,416,96z" data-original="#000000" class=""/><path d="M73.496,340.648L104.456,384H80c-35.288,0-64-28.712-64-64s28.712-64,64-64h272v-16H80c-44.112,0-80,35.888-80,80  s35.888,80,80,80h24.456l-30.968,43.352l13.016,9.296L129.832,392l-43.32-60.648L73.496,340.648z" data-original="#000000" class=""/><rect x="176" y="384" width="16" height="16" data-original="#000000" class=""/><rect x="304" y="384" width="16" height="16" data-original="#000000" class=""/><rect x="304" y="96" width="16" height="16" data-original="#000000" class=""/><rect x="176" y="96" width="16" height="16" data-original="#000000" class=""/><rect x="352" y="288" width="16" height="16" data-original="#000000" class=""/><rect x="384" y="288" width="16" height="16" data-original="#000000" class=""/><rect x="416" y="288" width="16" height="16" data-original="#000000" class=""/><rect x="64" y="192" width="16" height="16" data-original="#000000" class=""/><rect x="96" y="192" width="16" height="16" data-original="#000000" class=""/><rect x="128" y="192" width="16" height="16" data-original="#000000" class=""/><path d="M248,208c21.936,0,42.92-6.752,60.672-19.52l-9.344-12.992C284.312,186.296,266.56,192,248,192c-48.52,0-88-39.48-88-88  s39.48-88,88-88s88,39.48,88,88c0,21.688-7.96,42.52-22.408,58.664l11.92,10.672C342.592,154.256,352,129.632,352,104  C352,46.656,305.344,0,248,0S144,46.656,144,104S190.656,208,248,208z" data-original="#000000" class=""/><path d="M248,288c-57.344,0-104,46.656-104,104s46.656,104,104,104c21.936,0,42.92-6.752,60.672-19.52l-9.344-12.992  C284.312,474.296,266.56,480,248,480c-48.52,0-88-39.48-88-88s39.48-88,88-88s88,39.48,88,88c0,21.688-7.96,42.52-22.408,58.664  l11.92,10.672C342.592,442.256,352,417.632,352,392C352,334.656,305.344,288,248,288z" data-original="#000000" class=""/></g> </svg>
